<?xml version="1.0" standalone="no"?>
<!DOCTYPE svg PUBLIC "-//W3C//DTD SVG 20010904//EN"
 "http://www.w3.org/TR/2001/REC-SVG-20010904/DTD/svg10.dtd">
<svg version="1.0" xmlns="http://www.w3.org/2000/svg"
 width="750.000000pt" height="590.000000pt" viewBox="0 0 750.000000 590.000000"
 preserveAspectRatio="xMidYMid meet">

<g transform="translate(0.000000,590.000000) scale(0.100000,-0.100000)"
fill="#000000" stroke="none">
<path d="M5675 5541 c-3 -5 0 -13 6 -17 7 -4 9 -3 5 4 -3 5 0 13 6 15 9 4 10
6 1 6 -6 1 -14 -3 -18 -8z"/>
<path d="M4461 5531 c-12 -8 -9 -11 12 -16 14 -4 32 -5 39 -2 7 3 0 6 -17 7
-30 2 -30 2 -5 10 21 7 21 8 5 9 -11 0 -27 -3 -34 -8z"/>
<path d="M5733 5533 c-18 -7 -16 -23 2 -23 8 0 15 7 15 15 0 8 -1 15 -2 14 -2
0 -9 -3 -15 -6z"/>
<path d="M4564 5515 c22 -17 40 -20 32 -6 -3 5 -16 11 -28 14 -22 6 -22 5 -4
-8z"/>
<path d="M4643 5513 c9 -2 25 -2 35 0 9 3 1 5 -18 5 -19 0 -27 -2 -17 -5z"/>
<path d="M4626 5491 c-4 -5 -2 -12 3 -15 5 -4 12 -2 15 3 4 5 2 12 -3 15 -5 4
-12 2 -15 -3z"/>
<path d="M4938 5493 c7 -3 16 -2 19 1 4 3 -2 6 -13 5 -11 0 -14 -3 -6 -6z"/>
<path d="M4540 5480 c8 -5 23 -7 34 -4 12 4 16 2 12 -5 -8 -12 21 -28 31 -17
12 12 -16 29 -53 32 -26 2 -33 0 -24 -6z"/>
<path d="M4865 5480 l-20 -9 20 0 c17 -1 18 -3 5 -12 -10 -7 -11 -9 -2 -7 8 2
13 7 12 12 -1 5 4 13 12 17 17 11 -1 10 -27 -1z"/>
<path d="M5603 5483 c9 -2 23 -2 30 0 6 3 -1 5 -18 5 -16 0 -22 -2 -12 -5z"/>
<path d="M5418 5473 c7 -3 16 -2 19 1 4 3 -2 6 -13 5 -11 0 -14 -3 -6 -6z"/>
<path d="M5608 5463 c7 -3 16 -2 19 1 4 3 -2 6 -13 5 -11 0 -14 -3 -6 -6z"/>
<path d="M4710 5450 c-9 -6 -10 -10 -3 -10 6 0 15 5 18 10 8 12 4 12 -15 0z"/>
<path d="M6100 5456 c0 -2 7 -7 16 -10 8 -3 12 -2 9 4 -6 10 -25 14 -25 6z"/>
<path d="M6165 5440 c-16 -7 -17 -9 -3 -9 9 -1 20 4 23 9 7 11 7 11 -20 0z"/>
<path d="M6080 5420 c-8 -5 -10 -10 -5 -10 6 0 17 5 25 10 8 5 11 10 5 10 -5
0 -17 -5 -25 -10z"/>
<path d="M6108 5403 c7 -3 16 -2 19 1 4 3 -2 6 -13 5 -11 0 -14 -3 -6 -6z"/>
<path d="M6323 5385 c0 -7 6 -11 14 -8 7 3 13 6 13 8 0 2 -6 5 -13 8 -8 3 -14
-1 -14 -8z"/>
<path d="M6130 5376 c0 -2 7 -9 15 -16 9 -7 15 -8 15 -2 0 5 -7 12 -15 16 -8
3 -15 4 -15 2z"/>
<path d="M6407 5349 c7 -7 15 -10 18 -7 3 3 -2 9 -12 12 -14 6 -15 5 -6 -5z"/>
<path d="M6370 5330 c-8 -5 -10 -10 -5 -10 6 0 17 5 25 10 8 5 11 10 5 10 -5
0 -17 -5 -25 -10z"/>
<path d="M6290 5309 c-12 -8 -10 -9 9 -4 16 5 21 4 17 -4 -10 -16 0 -13 14 4
10 12 9 15 -6 15 -11 0 -26 -5 -34 -11z"/>
<path d="M6350 5296 c0 -2 7 -7 16 -10 8 -3 12 -2 9 4 -6 10 -25 14 -25 6z"/>
<path d="M6484 5285 c1 -8 6 -18 11 -22 4 -4 5 -2 0 6 -6 10 -2 12 16 6 27 -8
24 -3 -8 14 -17 9 -21 8 -19 -4z"/>
<path d="M6536 5265 c-7 -19 21 -32 36 -17 8 8 4 9 -13 6 -17 -4 -20 -3 -10 4
8 6 9 12 3 16 -5 3 -13 -1 -16 -9z"/>
<path d="M4088 5228 c-15 -12 -56 -102 -320 -705 -56 -128 -105 -233 -108
-233 -8 0 -13 10 -100 210 -200 457 -303 687 -316 708 -17 26 -61 27 -76 2 -7
-13 -73 -163 -358 -810 -40 -91 -108 -246 -152 -345 -44 -99 -82 -195 -85
-212 -11 -63 -9 -63 283 -63 l264 0 0 -213 c0 -152 3 -216 12 -225 16 -16 130
-16 146 0 9 9 12 73 12 225 l0 213 365 0 365 0 0 -213 c0 -152 3 -216 12 -225
7 -7 39 -12 75 -12 51 0 64 3 73 19 6 12 10 103 10 225 l0 206 264 0 c227 0
267 2 280 16 29 28 52 -32 -324 824 -38 85 -112 254 -165 375 -85 195 -113
245 -135 245 -3 0 -13 -6 -22 -12z m55 -413 c9 -22 45 -105 80 -185 193 -436
277 -630 277 -639 0 -8 -114 -11 -355 -11 l-356 0 -19 45 -20 46 96 217 c53
119 132 297 175 396 43 98 79 183 79 189 0 19 26 -16 43 -58z m-901 -8 c33
-77 44 -101 185 -422 64 -143 121 -273 128 -290 11 -26 10 -36 -6 -72 l-18
-43 -356 0 c-262 0 -355 3 -355 12 0 11 114 276 277 643 47 105 89 200 94 213
5 12 12 22 16 22 5 0 20 -29 35 -63z"/>
<path d="M6590 5236 c0 -2 7 -7 16 -10 8 -3 12 -2 9 4 -6 10 -25 14 -25 6z"/>
<path d="M6480 5206 c0 -2 7 -6 15 -10 8 -3 15 -1 15 4 0 6 -7 10 -15 10 -8 0
-15 -2 -15 -4z"/>
<path d="M6600 5185 c-25 -14 -25 -15 22 -19 6 -1 12 7 14 17 3 20 -3 21 -36
2z"/>
<path d="M6570 5147 c0 -2 14 -16 31 -33 16 -16 28 -22 24 -14 -5 13 -55 56
-55 47z"/>
<path d="M6672 5109 c-14 -22 -7 -25 14 -5 8 8 11 17 6 20 -4 2 -13 -4 -20
-15z"/>
<path d="M6660 5055 c13 -14 26 -25 28 -25 3 0 -5 11 -18 25 -13 14 -26 25
-28 25 -3 0 5 -11 18 -25z"/>
<path d="M6680 5070 c0 -5 5 -10 11 -10 5 0 7 5 4 10 -3 6 -8 10 -11 10 -2 0
-4 -4 -4 -10z"/>
<path d="M6727 5056 c-13 -20 -14 -25 -3 -29 14 -6 36 11 36 27 0 5 -7 1 -15
-10 -17 -22 -20 -12 -5 17 15 27 5 24 -13 -5z"/>
<path d="M6715 4990 c3 -5 8 -10 11 -10 2 0 4 5 4 10 0 6 -5 10 -11 10 -5 0
-7 -4 -4 -10z"/>
<path d="M2207 4938 c-3 -9 0 -19 8 -22 7 -2 16 2 19 10 3 8 2 13 -3 9 -5 -3
-11 0 -13 7 -3 8 -7 6 -11 -4z"/>
<path d="M6777 4944 c-3 -3 -3 -13 0 -22 4 -9 2 -13 -4 -9 -6 4 -8 -3 -5 -19
6 -32 10 -27 16 19 5 38 4 41 -7 31z"/>
<path d="M2162 4898 c-6 -13 -11 -17 -11 -10 -1 6 -6 12 -12 12 -5 0 -7 -5 -3
-11 3 -6 1 -15 -6 -19 -7 -4 0 -7 17 -6 23 1 28 6 29 29 1 33 0 33 -14 5z"/>
<path d="M2090 4880 c-8 -5 -10 -10 -5 -10 6 0 17 5 25 10 8 5 11 10 5 10 -5
0 -17 -5 -25 -10z"/>
<path d="M6811 4864 c0 -11 3 -14 6 -6 3 7 2 16 -1 19 -3 4 -6 -2 -5 -13z"/>
<path d="M2177 4841 c-24 -42 -21 -52 4 -13 12 18 20 35 17 37 -2 2 -12 -9
-21 -24z"/>
<path d="M1980 4830 c-9 -6 -10 -10 -3 -10 6 0 15 5 18 10 8 12 4 12 -15 0z"/>
<path d="M7317 4773 c-4 -3 -7 -11 -7 -17 0 -6 5 -5 12 2 6 6 9 14 7 17 -3 3
-9 2 -12 -2z"/>
<path d="M1806 4731 c2 -3 -5 -10 -18 -17 -21 -11 -20 -12 12 -10 35 2 54 32
19 32 -10 0 -16 -2 -13 -5z"/>
<path d="M7321 4714 c0 -11 3 -14 6 -6 3 7 2 16 -1 19 -3 4 -6 -2 -5 -13z"/>
<path d="M1747 4703 c-10 -9 -9 -23 1 -23 5 0 9 7 9 15 0 17 -1 18 -10 8z"/>
<path d="M1925 4690 c-3 -5 -2 -10 4 -10 5 0 13 5 16 10 3 6 2 10 -4 10 -5 0
-13 -4 -16 -10z"/>
<path d="M7321 4674 c0 -11 3 -14 6 -6 3 7 2 16 -1 19 -3 4 -6 -2 -5 -13z"/>
<path d="M1698 4673 c7 -3 16 -2 19 1 4 3 -2 6 -13 5 -11 0 -14 -3 -6 -6z"/>
<path d="M7283 4665 c-3 -9 -3 -18 -1 -21 3 -3 8 4 11 16 6 23 -1 27 -10 5z"/>
<path d="M1860 4655 c-14 -8 -20 -14 -15 -14 6 0 21 6 35 14 14 8 21 14 15 14
-5 0 -21 -6 -35 -14z"/>
<path d="M1660 4650 c-8 -5 -10 -10 -5 -10 6 0 17 5 25 10 8 5 11 10 5 10 -5
0 -17 -5 -25 -10z"/>
<path d="M1660 4626 c0 -9 30 -14 35 -6 4 6 -3 10 -14 10 -12 0 -21 -2 -21 -4z"/>
<path d="M1760 4600 c-8 -5 -10 -10 -5 -10 6 0 17 5 25 10 8 5 11 10 5 10 -5
0 -17 -5 -25 -10z"/>
<path d="M7240 4580 c0 -11 2 -20 4 -20 2 0 6 9 9 20 3 11 1 20 -4 20 -5 0 -9
-9 -9 -20z"/>
<path d="M1725 4570 c-3 -6 1 -7 9 -4 18 7 21 14 7 14 -6 0 -13 -4 -16 -10z"/>
<path d="M1531 4541 c-12 -8 -9 -11 11 -16 15 -4 35 -5 45 -2 12 3 8 5 -10 6
-16 0 -26 5 -22 11 8 12 -5 13 -24 1z"/>
<path d="M1645 4530 c-3 -6 1 -7 9 -4 18 7 21 14 7 14 -6 0 -13 -4 -16 -10z"/>
<path d="M1475 4520 c4 -6 -4 -15 -17 -20 -23 -10 -23 -10 0 -5 12 3 32 8 45
11 21 5 21 5 3 -10 -11 -9 -15 -16 -9 -16 6 0 16 7 23 15 10 12 9 16 -4 20 -9
3 -23 7 -32 10 -8 3 -12 0 -9 -5z"/>
<path d="M1411 4486 c-9 -10 -9 -16 -1 -21 16 -10 31 7 21 23 -6 10 -10 10
-20 -2z"/>
<path d="M1540 4490 c-8 -5 -10 -10 -5 -10 6 0 17 5 25 10 8 5 11 10 5 10 -5
0 -17 -5 -25 -10z"/>
<path d="M7230 4480 c0 -11 4 -20 9 -20 5 0 7 9 4 20 -3 11 -7 20 -9 20 -2 0
-4 -9 -4 -20z"/>
<path d="M1482 4459 c-13 -5 -27 -7 -31 -4 -4 2 -8 -2 -8 -10 0 -8 5 -15 10
-15 5 0 4 -7 -3 -15 -11 -13 -10 -14 4 -9 10 4 15 13 12 21 -6 16 39 37 56 27
7 -4 8 -2 4 4 -8 14 -13 14 -44 1z"/>
<path d="M7176 4443 c4 -19 2 -39 -5 -47 -9 -10 -8 -15 1 -19 16 -6 22 57 8
81 -7 13 -8 9 -4 -15z"/>
<path d="M1341 4431 c-15 -10 -7 -31 12 -30 8 0 8 2 -1 6 -10 4 -10 8 -1 19
13 16 10 18 -10 5z"/>
<path d="M7150 4415 c-7 -9 -10 -18 -7 -21 3 -3 10 4 17 15 13 25 8 27 -10 6z"/>
<path d="M1388 4373 c6 -3 9 -9 6 -15 -4 -6 2 -5 15 1 27 15 27 16 -7 17 -15
1 -21 -1 -14 -3z"/>
<path d="M1270 4361 c0 -13 28 -33 33 -23 3 4 -3 13 -14 20 -10 7 -19 8 -19 3z"/>
<path d="M7156 4354 c-3 -8 -10 -12 -16 -9 -6 4 -7 -1 -3 -11 6 -16 7 -15 20
2 13 17 17 34 9 34 -2 0 -7 -7 -10 -16z"/>
<path d="M7075 4350 c-3 -5 -1 -10 4 -10 6 0 11 5 11 10 0 6 -2 10 -4 10 -3 0
-8 -4 -11 -10z"/>
<path d="M1271 4314 c0 -11 3 -14 6 -6 3 7 2 16 -1 19 -3 4 -6 -2 -5 -13z"/>
<path d="M7117 4316 c-4 -10 -3 -15 3 -11 6 3 10 1 10 -6 0 -7 3 -10 6 -6 3 3
2 13 -4 22 -8 16 -9 16 -15 1z"/>
<path d="M1139 4264 c-13 -14 -17 -23 -9 -19 13 5 46 45 37 45 -2 0 -14 -11
-28 -26z"/>
<path d="M7019 4268 c10 -14 10 -18 1 -18 -10 0 -10 -3 0 -15 7 -8 18 -15 24
-15 6 0 4 5 -4 11 -11 8 -12 12 -2 16 6 2 12 10 12 16 0 5 -3 7 -7 4 -3 -4
-13 -1 -22 6 -14 11 -14 10 -2 -5z"/>
<path d="M7099 4253 l-24 -28 28 24 c15 14 27 26 27 28 0 8 -8 1 -31 -24z"/>
<path d="M1169 4253 c-13 -16 -12 -17 4 -4 9 7 17 15 17 17 0 8 -8 3 -21 -13z"/>
<path d="M1226 4255 c-11 -8 -18 -17 -15 -19 2 -2 15 4 28 15 27 22 15 26 -13
4z"/>
<path d="M1150 4220 c0 -5 5 -10 11 -10 5 0 7 5 4 10 -3 6 -8 10 -11 10 -2 0
-4 -4 -4 -10z"/>
<path d="M1069 4193 c-13 -16 -12 -17 4 -4 9 7 17 15 17 17 0 8 -8 3 -21 -13z"/>
<path d="M1130 4190 c0 -5 5 -10 10 -10 6 0 10 5 10 10 0 6 -4 10 -10 10 -5 0
-10 -4 -10 -10z"/>
<path d="M1110 4168 c0 -6 3 -8 7 -5 3 4 12 2 20 -5 11 -9 18 -7 31 7 12 13
12 15 2 8 -10 -8 -21 -9 -30 -3 -20 13 -30 12 -30 -2z"/>
<path d="M6908 4175 c-7 -7 24 -75 34 -75 12 0 9 18 -4 22 -7 3 -8 10 -4 17 7
11 10 11 18 0 8 -12 9 -12 6 0 -5 17 -42 44 -50 36z m27 -23 c-3 -3 -11 0 -18
7 -9 10 -8 11 6 5 10 -3 15 -9 12 -12z"/>
<path d="M6986 4163 c-6 -14 -5 -15 5 -6 7 7 10 15 7 18 -3 3 -9 -2 -12 -12z"/>
<path d="M1059 4143 c-13 -16 -12 -17 4 -4 9 7 17 15 17 17 0 8 -8 3 -21 -13z"/>
<path d="M1021 4131 c-8 -5 -9 -11 -3 -15 5 -3 12 1 16 9 6 17 6 18 -13 6z"/>
<path d="M1063 4111 c-10 -15 -9 -22 1 -30 10 -8 19 -4 37 17 22 25 22 25 1 8
-12 -11 -25 -16 -30 -11 -4 4 -1 10 6 12 6 3 12 9 12 14 0 15 -15 10 -27 -10z"/>
<path d="M6895 4120 c-4 -6 -10 -8 -15 -5 -5 3 -11 1 -14 -4 -8 -13 22 -7 36
7 7 7 9 12 6 12 -4 0 -10 -5 -13 -10z"/>
<path d="M6899 4074 c-19 -46 -20 -57 -3 -43 8 6 12 14 10 17 -3 2 -1 13 5 24
6 11 8 22 5 25 -3 3 -11 -7 -17 -23z"/>
<path d="M1030 4059 c0 -6 -8 -8 -18 -5 -12 4 -26 -1 -37 -14 -22 -25 -13 -27
11 -3 13 13 19 14 22 5 5 -17 15 -15 30 8 7 12 8 20 2 20 -5 0 -10 -5 -10 -11z"/>
<path d="M6767 4025 c-16 -12 -16 -13 0 -26 15 -12 16 -12 10 3 -3 9 -1 19 6
21 7 2 10 7 7 10 -3 3 -13 0 -23 -8z"/>
<path d="M6823 4023 c-15 -5 -17 -23 -4 -23 5 0 11 7 15 15 3 8 4 15 3 14 -1
0 -8 -3 -14 -6z"/>
<path d="M931 4015 c0 -5 3 -16 8 -23 7 -11 9 -10 14 3 4 9 3 14 -2 10 -5 -3
-12 1 -14 7 -3 7 -6 9 -6 3z"/>
<path d="M6845 4000 c-3 -6 1 -7 9 -4 18 7 21 14 7 14 -6 0 -13 -4 -16 -10z"/>
<path d="M900 3970 c-6 -11 -8 -20 -6 -20 3 0 10 9 16 20 6 11 8 20 6 20 -3 0
-10 -9 -16 -20z"/>
<path d="M6796 3979 c2 -4 -1 -9 -8 -11 -7 -3 -4 -7 7 -12 11 -4 16 -4 12 0
-4 4 -2 12 3 19 7 8 5 12 -5 12 -8 0 -12 -4 -9 -8z"/>
<path d="M950 3960 c0 -5 5 -10 11 -10 5 0 7 5 4 10 -3 6 -8 10 -11 10 -2 0
-4 -4 -4 -10z"/>
<path d="M6650 3960 c-9 -6 -10 -10 -3 -10 6 0 15 5 18 10 8 12 4 12 -15 0z"/>
<path d="M920 3940 c0 -5 5 -10 11 -10 5 0 7 5 4 10 -3 6 -8 10 -11 10 -2 0
-4 -4 -4 -10z"/>
<path d="M6675 3940 c-3 -5 -1 -10 4 -10 6 0 11 5 11 10 0 6 -2 10 -4 10 -3 0
-8 -4 -11 -10z"/>
<path d="M6717 3937 c-3 -8 1 -14 9 -14 16 0 19 13 5 21 -5 3 -11 0 -14 -7z"/>
<path d="M6624 3926 c3 -24 22 -40 31 -27 3 7 1 10 -6 9 -7 -2 -13 2 -14 9 0
6 -3 14 -7 18 -3 4 -5 0 -4 -9z"/>
<path d="M6683 3902 c-9 -5 -6 -12 10 -21 19 -13 21 -12 10 1 -7 8 -10 18 -6
21 9 9 1 8 -14 -1z"/>
<path d="M910 3869 c0 -5 5 -7 10 -4 6 3 10 8 10 11 0 2 -4 4 -10 4 -5 0 -10
-5 -10 -11z"/>
<path d="M6515 3861 c-16 -10 -39 -28 -50 -41 l-20 -23 23 14 c12 8 22 17 22
21 0 12 40 29 52 22 7 -4 2 -12 -13 -21 -14 -9 -17 -12 -6 -9 30 10 42 -6 16
-20 -18 -10 -20 -13 -7 -14 9 0 20 5 23 10 5 8 12 7 23 -2 10 -7 6 0 -7 15
-14 15 -21 27 -17 27 5 0 3 6 -3 13 -6 8 -8 17 -4 20 12 12 -1 7 -32 -12z"/>
<path d="M866 3845 c-10 -15 -22 -23 -29 -19 -8 4 -7 2 1 -7 11 -12 15 -11 23
4 6 9 14 15 18 13 4 -3 8 4 8 15 2 25 -1 24 -21 -6z"/>
<path d="M861 3784 c0 -11 3 -14 6 -6 3 7 2 16 -1 19 -3 4 -6 -2 -5 -13z"/>
<path d="M6496 3775 c-3 -8 -1 -15 4 -15 6 0 10 7 10 15 0 8 -2 15 -4 15 -2 0
-6 -7 -10 -15z"/>
<path d="M823 3735 c0 -22 2 -30 4 -17 2 12 2 30 0 40 -3 9 -5 -1 -4 -23z"/>
<path d="M842 3750 c0 -14 2 -19 5 -12 2 6 2 18 0 25 -3 6 -5 1 -5 -13z"/>
<path d="M6526 3754 c-6 -15 -4 -15 11 -3 10 7 20 15 22 16 2 2 -3 3 -11 3 -9
0 -19 -7 -22 -16z"/>
<path d="M6340 3750 c-9 -6 -10 -10 -3 -10 6 0 15 5 18 10 8 12 4 12 -15 0z"/>
<path d="M6408 3753 c6 -2 18 -2 25 0 6 3 1 5 -13 5 -14 0 -19 -2 -12 -5z"/>
<path d="M233 3708 c1 -15 6 -23 11 -18 4 4 4 16 -2 26 -9 16 -10 14 -9 -8z"/>
<path d="M6403 3717 c0 -7 9 -13 19 -13 10 0 18 1 18 3 0 1 -8 7 -18 12 -13 7
-19 6 -19 -2z"/>
<path d="M6268 3698 c5 -5 16 -8 23 -6 8 3 3 7 -10 11 -17 4 -21 3 -13 -5z"/>
<path d="M6406 3681 c-4 -5 3 -7 14 -4 23 6 26 13 6 13 -8 0 -17 -4 -20 -9z"/>
<path d="M206 3645 c-3 -8 -1 -15 4 -15 6 0 10 7 10 15 0 8 -2 15 -4 15 -2 0
-6 -7 -10 -15z"/>
<path d="M6251 3649 c8 -5 26 -9 42 -9 15 0 26 -3 25 -7 -2 -5 1 -10 6 -13 5
-3 10 2 11 11 2 9 -2 16 -9 17 -6 0 -29 3 -50 6 -26 3 -35 1 -25 -5z"/>
<path d="M820 3631 c0 -11 4 -22 9 -25 4 -3 6 6 3 19 -5 30 -12 33 -12 6z"/>
<path d="M6085 3610 c-3 -6 1 -7 9 -4 18 7 21 14 7 14 -6 0 -13 -4 -16 -10z"/>
<path d="M6134 3610 c-12 -5 -25 -14 -29 -20 -4 -7 7 -4 24 4 17 9 31 19 31
21 0 6 1 6 -26 -5z"/>
<path d="M805 3569 c-4 -6 -5 -12 -2 -15 2 -3 7 2 10 11 7 17 1 20 -8 4z"/>
<path d="M6181 3571 c-8 -5 -16 -16 -17 -25 -2 -12 2 -13 22 -4 16 8 21 14 13
19 -8 5 -6 9 7 12 12 3 13 5 4 6 -8 0 -21 -3 -29 -8z"/>
<path d="M5984 3551 c4 -5 1 -12 -4 -14 -6 -3 -5 -4 2 -3 15 3 23 26 8 26 -6
0 -9 -4 -6 -9z"/>
<path d="M180 3510 c0 -5 5 -10 10 -10 6 0 10 5 10 10 0 6 -4 10 -10 10 -5 0
-10 -4 -10 -10z"/>
<path d="M6020 3479 c0 -5 9 -9 20 -9 11 0 20 2 20 4 0 2 -9 6 -20 9 -11 3
-20 1 -20 -4z"/>
<path d="M6003 3455 c0 -8 4 -12 9 -9 5 3 6 10 3 15 -9 13 -12 11 -12 -6z"/>
<path d="M5762 3451 c-11 -6 -9 -9 5 -13 12 -3 20 0 20 8 0 16 -6 17 -25 5z"/>
<path d="M5877 3407 c3 -5 -5 -6 -18 -2 -28 9 -24 3 10 -15 15 -8 21 -8 17 -1
-4 6 0 11 11 11 10 0 24 4 30 8 8 5 -1 8 -21 8 -19 0 -32 -4 -29 -9z"/>
<path d="M5843 3375 c0 -7 6 -11 14 -8 7 3 13 6 13 8 0 2 -6 5 -13 8 -8 3 -14
-1 -14 -8z"/>
<path d="M241 3350 c-6 -19 -7 -39 -1 -53 9 -24 11 -18 15 46 3 45 0 46 -14 7z"/>
<path d="M5612 3371 c-11 -6 -10 -10 4 -15 9 -3 19 -4 22 -1 3 3 -1 5 -9 5
-11 0 -11 2 1 10 8 5 11 10 5 10 -5 0 -16 -4 -23 -9z"/>
<path d="M5691 3325 c-19 -6 -30 -14 -25 -17 5 -3 27 3 49 13 45 21 29 23 -24
4z"/>
<path d="M5430 3300 c-8 -11 -21 -21 -29 -23 -14 -4 -14 -5 0 -6 16 -1 56 35
48 44 -3 2 -11 -4 -19 -15z"/>
<path d="M5490 3310 c0 -5 5 -10 11 -10 5 0 7 5 4 10 -3 6 -8 10 -11 10 -2 0
-4 -4 -4 -10z"/>
<path d="M5606 3285 c-3 -8 -2 -15 3 -15 5 0 14 7 21 15 10 12 10 15 -3 15 -8
0 -17 -7 -21 -15z"/>
<path d="M260 3280 c0 -5 5 -10 10 -10 6 0 10 5 10 10 0 6 -4 10 -10 10 -5 0
-10 -4 -10 -10z"/>
<path d="M5460 3280 c0 -5 5 -10 10 -10 6 0 10 5 10 10 0 6 -4 10 -10 10 -5 0
-10 -4 -10 -10z"/>
<path d="M5435 3270 c-3 -5 -1 -10 4 -10 6 0 11 5 11 10 0 6 -2 10 -4 10 -3 0
-8 -4 -11 -10z"/>
<path d="M5535 3240 c-4 -6 -11 -7 -17 -4 -7 4 -8 2 -4 -5 5 -8 12 -9 19 -3 7
5 19 12 27 15 12 4 12 6 -2 6 -9 1 -20 -4 -23 -9z"/>
<path d="M5450 3225 c-8 -9 -6 -14 5 -19 9 -3 13 -2 10 3 -3 5 5 11 17 13 l23
3 -22 7 c-13 3 -27 1 -33 -7z"/>
<path d="M340 3185 c13 -14 26 -25 28 -25 3 0 -5 11 -18 25 -13 14 -26 25 -28
25 -3 0 5 -11 18 -25z"/>
<path d="M5125 3200 c-16 -7 -17 -9 -3 -9 9 -1 20 4 23 9 7 11 7 11 -20 0z"/>
<path d="M5197 3199 c7 -7 15 -10 18 -7 3 3 -2 9 -12 12 -14 6 -15 5 -6 -5z"/>
<path d="M5248 3183 c7 -3 16 -2 19 1 4 3 -2 6 -13 5 -11 0 -14 -3 -6 -6z"/>
<path d="M259 3167 c10 -12 17 -14 26 -7 9 8 15 7 18 -2 4 -9 6 -9 6 -1 1 16
-16 26 -24 13 -5 -8 -12 -7 -23 2 -15 12 -16 11 -3 -5z"/>
<path d="M5214 3154 c-18 -14 -18 -15 4 -4 12 6 22 13 22 15 0 8 -5 6 -26 -11z"/>
<path d="M340 3156 c0 -4 7 -14 15 -22 8 -9 15 -11 15 -6 0 5 -7 15 -15 22 -8
7 -15 9 -15 6z"/>
<path d="M4972 3124 c-7 -8 -8 -14 -3 -14 10 0 25 19 20 25 -2 1 -10 -3 -17
-11z"/>
<path d="M294 3118 c-4 -7 -4 -10 1 -6 4 4 13 4 19 -2 7 -5 18 -5 25 -1 9 6
10 11 2 15 -6 4 -11 2 -11 -5 0 -9 -3 -9 -14 0 -11 9 -16 9 -22 -1z"/>
<path d="M5210 3120 c0 -5 5 -10 10 -10 6 0 10 5 10 10 0 6 -4 10 -10 10 -5 0
-10 -4 -10 -10z"/>
<path d="M400 3101 c0 -6 4 -13 10 -16 6 -3 7 1 4 9 -7 18 -14 21 -14 7z"/>
<path d="M4853 3103 c9 -2 23 -2 30 0 6 3 -1 5 -18 5 -16 0 -22 -2 -12 -5z"/>
<path d="M375 3080 c3 -5 8 -10 11 -10 2 0 4 5 4 10 0 6 -5 10 -11 10 -5 0 -7
-4 -4 -10z"/>
<path d="M350 3072 c0 -5 7 -15 15 -22 8 -7 15 -8 15 -2 0 5 -7 15 -15 22 -8
7 -15 8 -15 2z"/>
<path d="M438 3075 c-9 -16 17 -34 33 -24 11 7 11 9 -3 9 -9 0 -18 5 -20 12
-3 7 -7 8 -10 3z"/>
<path d="M5078 3063 c7 -3 16 -2 19 1 4 3 -2 6 -13 5 -11 0 -14 -3 -6 -6z"/>
<path d="M4698 3053 c7 -3 16 -2 19 1 4 3 -2 6 -13 5 -11 0 -14 -3 -6 -6z"/>
<path d="M4975 3050 c-3 -5 -1 -10 4 -10 6 0 11 5 11 10 0 6 -2 10 -4 10 -3 0
-8 -4 -11 -10z"/>
<path d="M424 3042 c3 -5 1 -12 -6 -14 -8 -3 -9 -6 -1 -11 6 -4 13 0 17 8 3 8
0 17 -6 21 -6 4 -8 3 -4 -4z"/>
<path d="M4665 3040 c3 -5 8 -10 11 -10 2 0 4 5 4 10 0 6 -5 10 -11 10 -5 0
-7 -4 -4 -10z"/>
<path d="M5015 3039 c-4 -6 -5 -12 -2 -15 2 -3 7 2 10 11 7 17 1 20 -8 4z"/>
<path d="M4730 3030 c14 -4 18 -9 10 -9 -13 -1 -13 -2 0 -11 24 -15 32 -12 20
10 -6 11 -20 20 -33 19 -21 -1 -21 -1 3 -9z"/>
<path d="M4955 3010 c-3 -6 1 -7 9 -4 18 7 21 14 7 14 -6 0 -13 -4 -16 -10z"/>
<path d="M4833 2993 c15 -9 -5 -23 -36 -24 -22 -1 -25 -3 -10 -6 12 -2 41 3
65 11 27 9 35 15 21 16 -12 0 -27 2 -35 3 -7 2 -10 2 -5 0z"/>
<path d="M4908 2993 c7 -3 16 -2 19 1 4 3 -2 6 -13 5 -11 0 -14 -3 -6 -6z"/>
<path d="M435 2970 c10 -11 20 -20 23 -20 3 0 -3 9 -13 20 -10 11 -20 20 -23
20 -3 0 3 -9 13 -20z"/>
<path d="M4730 2980 c8 -5 20 -10 25 -10 6 0 3 5 -5 10 -8 5 -19 10 -25 10 -5
0 -3 -5 5 -10z"/>
<path d="M4396 2963 c-6 -14 -5 -15 5 -6 7 7 10 15 7 18 -3 3 -9 -2 -12 -12z"/>
<path d="M4431 2963 c-7 -15 -5 -18 15 -18 21 0 22 2 9 11 -13 9 -13 13 -3 17
9 4 9 6 1 6 -7 1 -17 -7 -22 -16z"/>
<path d="M4475 2970 c-3 -5 -1 -10 4 -10 6 0 11 5 11 10 0 6 -2 10 -4 10 -3 0
-8 -4 -11 -10z"/>
<path d="M4540 2955 c-10 -12 -9 -16 4 -21 9 -4 20 -4 23 0 4 3 -2 6 -13 6
-16 0 -16 2 -4 10 8 5 12 12 9 15 -4 3 -12 -1 -19 -10z"/>
<path d="M480 2933 c0 -1 10 -7 21 -14 13 -6 19 -7 15 -1 -3 6 0 12 6 15 7 2
1 4 -14 3 -16 0 -28 -2 -28 -3z"/>
<path d="M4640 2925 c-7 -9 -10 -18 -6 -22 3 -3 6 -1 6 5 0 6 8 9 18 6 13 -5
14 -4 3 4 -11 8 -11 10 0 15 8 3 9 6 3 6 -6 1 -17 -6 -24 -14z"/>
<path d="M539 2913 c-13 -16 -12 -17 4 -4 9 7 17 15 17 17 0 8 -8 3 -21 -13z"/>
<path d="M697 2919 c7 -7 15 -10 18 -7 3 3 -2 9 -12 12 -14 6 -15 5 -6 -5z"/>
<path d="M4137 2901 c-17 -6 -16 -8 7 -21 14 -7 29 -10 33 -7 3 4 -1 7 -10 7
-9 0 -17 4 -17 10 0 5 7 7 15 4 8 -4 15 -4 15 -1 0 10 -25 14 -43 8z"/>
<path d="M735 2890 c3 -5 8 -10 11 -10 2 0 4 5 4 10 0 6 -5 10 -11 10 -5 0 -7
-4 -4 -10z"/>
<path d="M4510 2891 c-29 -5 -31 -8 -14 -12 12 -4 29 -2 38 3 9 5 21 6 28 2 7
-4 8 -3 4 4 -4 7 -10 11 -14 11 -4 -1 -23 -5 -42 -8z"/>
<path d="M790 2870 c-9 -6 -10 -10 -3 -10 6 0 15 5 18 10 8 12 4 12 -15 0z"/>
<path d="M620 2850 c8 -5 22 -9 30 -9 10 0 8 3 -5 9 -27 12 -43 12 -25 0z"/>
<path d="M4325 2850 c3 -5 11 -10 16 -10 6 0 7 5 4 10 -3 6 -11 10 -16 10 -6
0 -7 -4 -4 -10z"/>
<path d="M4221 2846 c2 -2 20 -6 39 -10 25 -4 31 -3 20 4 -14 9 -69 15 -59 6z"/>
<path d="M887 2821 c-5 -19 19 -38 31 -26 3 3 0 5 -7 5 -7 0 -11 7 -8 15 4 8
2 17 -2 20 -5 2 -11 -4 -14 -14z"/>
<path d="M4255 2822 c5 -3 -8 -11 -30 -18 -22 -6 -31 -12 -20 -13 11 0 38 6
60 14 22 8 32 14 23 15 -9 0 -22 2 -30 3 -7 2 -9 1 -3 -1z"/>
<path d="M966 2807 c-16 -12 -16 -13 3 -13 11 0 18 3 15 7 -2 4 2 10 8 12 7 3
8 6 2 6 -5 1 -18 -5 -28 -12z"/>
<path d="M3830 2800 c0 -6 7 -10 15 -10 8 0 15 2 15 4 0 2 -7 6 -15 10 -8 3
-15 1 -15 -4z"/>
<path d="M4150 2795 c-17 -20 -7 -30 17 -16 11 6 13 11 5 11 -7 0 -10 5 -7 10
10 15 -1 12 -15 -5z"/>
<path d="M3878 2773 c6 -2 18 -2 25 0 6 3 1 5 -13 5 -14 0 -19 -2 -12 -5z"/>
<path d="M4095 2770 c-3 -5 -2 -10 4 -10 5 0 13 5 16 10 3 6 2 10 -4 10 -5 0
-13 -4 -16 -10z"/>
<path d="M1135 2760 c3 -5 8 -10 11 -10 2 0 4 5 4 10 0 6 -5 10 -11 10 -5 0
-7 -4 -4 -10z"/>
<path d="M3928 2763 c6 -2 18 -2 25 0 6 3 1 5 -13 5 -14 0 -19 -2 -12 -5z"/>
<path d="M4015 2750 c-3 -5 -2 -10 4 -10 5 0 13 5 16 10 3 6 2 10 -4 10 -5 0
-13 -4 -16 -10z"/>
<path d="M1220 2735 c33 -19 49 -19 24 0 -10 8 -26 14 -34 14 -9 0 -4 -6 10
-14z"/>
<path d="M3403 2743 c9 -2 23 -2 30 0 6 3 -1 5 -18 5 -16 0 -22 -2 -12 -5z"/>
<path d="M3955 2740 c4 -6 11 -8 16 -5 14 9 11 15 -7 15 -8 0 -12 -5 -9 -10z"/>
<path d="M3240 2730 c0 -5 7 -10 16 -10 8 0 12 5 9 10 -3 6 -10 10 -16 10 -5
0 -9 -4 -9 -10z"/>
<path d="M3281 2726 c2 -2 26 -6 53 -9 30 -3 43 -1 35 4 -13 8 -97 13 -88 5z"/>
<path d="M3870 2720 c0 -5 7 -7 15 -4 8 4 15 8 15 10 0 2 -7 4 -15 4 -8 0 -15
-4 -15 -10z"/>
<path d="M1365 2710 c3 -5 10 -10 16 -10 5 0 9 5 9 10 0 6 -7 10 -16 10 -8 0
-12 -4 -9 -10z"/>
<path d="M3178 2713 c7 -3 16 -2 19 1 4 3 -2 6 -13 5 -11 0 -14 -3 -6 -6z"/>
<path d="M1020 2690 c8 -5 20 -10 25 -10 6 0 3 5 -5 10 -8 5 -19 10 -25 10 -5
0 -3 -5 5 -10z"/>
<path d="M1116 2686 l-28 -13 38 -6 c21 -4 40 -4 43 -2 2 3 -4 5 -13 5 -12 0
-16 5 -12 15 3 8 4 15 3 14 -1 0 -15 -6 -31 -13z"/>
<path d="M3488 2693 c7 -3 16 -2 19 1 4 3 -2 6 -13 5 -11 0 -14 -3 -6 -6z"/>
<path d="M3720 2690 c-8 -5 -10 -10 -5 -10 6 0 17 5 25 10 8 5 11 10 5 10 -5
0 -17 -5 -25 -10z"/>
<path d="M3418 2683 c7 -3 16 -2 19 1 4 3 -2 6 -13 5 -11 0 -14 -3 -6 -6z"/>
<path d="M3515 2681 c-3 -5 0 -13 6 -17 8 -4 9 -3 5 4 -5 8 3 10 26 5 39 -7
35 1 -4 11 -15 3 -29 2 -33 -3z"/>
<path d="M1737 2673 c14 -3 20 -9 16 -19 -4 -11 5 -14 43 -12 l49 1 -45 7
c-25 4 -36 8 -25 9 l20 2 -20 9 c-11 5 -29 8 -40 8 -17 -1 -17 -1 2 -5z"/>
<path d="M3615 2670 c-16 -7 -17 -9 -3 -9 9 -1 20 4 23 9 7 11 7 11 -20 0z"/>
<path d="M1680 2659 c0 -5 9 -9 20 -9 11 0 20 2 20 4 0 2 -9 6 -20 9 -11 3
-20 1 -20 -4z"/>
<path d="M2328 2663 c7 -3 16 -2 19 1 4 3 -2 6 -13 5 -11 0 -14 -3 -6 -6z"/>
<path d="M2345 2650 c-16 -7 -17 -9 -3 -9 9 -1 20 4 23 9 7 11 7 11 -20 0z"/>
<path d="M2557 2653 c-15 -2 -25 -8 -22 -13 5 -8 62 3 73 15 6 5 -4 5 -51 -2z"/>
<path d="M3360 2642 c0 -4 16 -6 35 -4 19 2 35 6 35 8 0 2 -16 4 -35 4 -19 0
-35 -4 -35 -8z"/>
<path d="M1938 2633 c7 -3 16 -2 19 1 4 3 -2 6 -13 5 -11 0 -14 -3 -6 -6z"/>
<path d="M2048 2623 c6 -2 18 -2 25 0 6 3 1 5 -13 5 -14 0 -19 -2 -12 -5z"/>
<path d="M1400 2610 c34 -11 60 -11 35 0 -11 5 -29 8 -40 8 -16 0 -15 -2 5 -8z"/>
<path d="M2955 2610 c-3 -6 1 -7 9 -4 18 7 21 14 7 14 -6 0 -13 -4 -16 -10z"/>
<path d="M3053 2613 c9 -2 23 -2 30 0 6 3 -1 5 -18 5 -16 0 -22 -2 -12 -5z"/>
<path d="M1568 2603 c6 -2 18 -2 25 0 6 3 1 5 -13 5 -14 0 -19 -2 -12 -5z"/>
<path d="M1738 2603 c7 -3 16 -2 19 1 4 3 -2 6 -13 5 -11 0 -14 -3 -6 -6z"/>
<path d="M2440 2600 c0 -5 7 -10 16 -10 8 0 12 5 9 10 -3 6 -10 10 -16 10 -5
0 -9 -4 -9 -10z"/>
<path d="M2495 2600 c3 -5 8 -10 11 -10 2 0 4 5 4 10 0 6 -5 10 -11 10 -5 0
-7 -4 -4 -10z"/>
<path d="M2826 2595 c-3 -8 -1 -15 4 -15 6 0 10 7 10 15 0 8 -2 15 -4 15 -2 0
-6 -7 -10 -15z"/>
<path d="M3100 2600 c-21 -7 -21 -8 -5 -9 11 0 27 4 35 9 18 11 5 11 -30 0z"/>
<path d="M1478 2593 c7 -3 16 -2 19 1 4 3 -2 6 -13 5 -11 0 -14 -3 -6 -6z"/>
<path d="M2888 2593 c7 -3 16 -2 19 1 4 3 -2 6 -13 5 -11 0 -14 -3 -6 -6z"/>
<path d="M1608 2583 c6 -2 18 -2 25 0 6 3 1 5 -13 5 -14 0 -19 -2 -12 -5z"/>
<path d="M2703 2583 c9 -2 23 -2 30 0 6 3 -1 5 -18 5 -16 0 -22 -2 -12 -5z"/>
<path d="M2943 2583 c9 -2 23 -2 30 0 6 3 -1 5 -18 5 -16 0 -22 -2 -12 -5z"/>
<path d="M634 1980 c-105 -15 -184 -51 -248 -113 -197 -189 -196 -602 1 -774
105 -91 185 -118 327 -111 77 4 105 10 157 35 82 39 139 96 178 175 52 106 51
107 -58 146 -52 18 -98 29 -102 25 -3 -5 -14 -29 -24 -54 -71 -192 -324 -184
-382 11 -22 74 -22 268 1 328 39 107 98 146 212 140 71 -3 75 -5 118 -47 25
-25 48 -57 51 -73 5 -19 13 -28 27 -28 27 0 181 40 191 49 14 14 -47 133 -91
178 -83 86 -226 131 -358 113z m-17 -966 c-3 -3 -12 -4 -19 -1 -8 3 -5 6 6 6
11 1 17 -2 13 -5z m160 0 c-3 -3 -12 -4 -19 -1 -8 3 -5 6 6 6 11 1 17 -2 13
-5z m-74 -11 c-13 -2 -33 -2 -45 0 -13 2 -3 4 22 4 25 0 35 -2 23 -4z"/>
<path d="M1627 1979 c-49 -5 -92 -19 -153 -50 -74 -36 -92 -50 -134 -106 -27
-36 -58 -89 -69 -118 -47 -126 -52 -289 -12 -416 22 -68 92 -183 122 -200 10
-5 24 -15 31 -23 49 -48 176 -86 291 -86 142 0 260 45 346 130 44 45 100 161
117 246 19 89 14 216 -10 295 -72 233 -272 357 -529 328z m190 -208 c53 -25
108 -99 124 -167 18 -81 7 -249 -19 -301 -45 -87 -120 -133 -217 -133 -99 0
-169 44 -217 135 -30 56 -38 237 -14 318 18 61 75 129 130 153 47 20 163 17
213 -5z"/>
<path d="M2735 1983 c-130 -13 -214 -51 -292 -131 -98 -101 -137 -209 -137
-377 0 -301 183 -494 469 -495 198 0 343 85 420 244 43 90 59 184 52 300 -14
225 -135 387 -327 439 -60 17 -138 25 -185 20z m150 -212 c95 -44 127 -109
133 -267 5 -146 -10 -201 -74 -266 -51 -53 -90 -68 -174 -68 -118 1 -201 72
-230 199 -15 64 -8 219 12 272 19 53 65 106 112 129 54 27 164 27 221 1z"/>
<path d="M4683 1979 c-122 -15 -207 -70 -253 -162 -38 -76 -40 -140 -6 -212
49 -105 130 -155 327 -205 68 -17 139 -41 157 -52 27 -17 32 -25 32 -60 0 -86
-61 -123 -191 -117 -72 4 -76 5 -112 44 -20 22 -43 60 -51 85 -15 50 -4 48
-140 35 l-79 -7 6 -46 c22 -189 172 -303 397 -304 52 0 116 5 140 12 168 45
257 159 248 315 -10 161 -101 242 -338 301 -139 34 -199 60 -206 90 -16 63 32
98 136 99 99 0 126 -14 157 -84 l24 -54 97 7 c53 4 100 11 104 14 12 11 -17
116 -42 158 -13 22 -33 47 -44 57 -78 70 -223 104 -363 86z"/>
<path d="M5705 1979 c-88 -12 -200 -66 -260 -126 -25 -24 -60 -76 -80 -116
-130 -263 -37 -594 199 -708 84 -40 154 -52 271 -46 142 7 288 62 358 135 l27
29 -2 189 -3 189 -215 0 -215 0 0 -90 0 -90 108 -3 108 -3 -3 -52 -3 -52 -59
-30 c-69 -34 -162 -44 -229 -25 -46 12 -118 73 -141 119 -25 48 -39 148 -33
234 9 111 43 179 111 222 46 28 56 30 141 30 82 0 95 -3 132 -27 25 -16 48
-43 61 -71 l21 -45 78 14 c124 23 123 22 123 47 0 36 -46 124 -87 166 -87 89
-243 131 -408 110z"/>
<path d="M6760 1978 c-74 -9 -187 -61 -238 -108 -179 -165 -202 -518 -47 -730
33 -44 116 -103 185 -131 68 -27 219 -37 302 -20 133 28 240 109 297 226 46
96 64 190 57 300 -7 102 -21 156 -64 241 -37 71 -71 109 -137 151 -99 63 -228
88 -355 71z m182 -201 c15 -7 47 -31 72 -55 57 -54 76 -112 76 -237 0 -203
-72 -303 -227 -313 -78 -5 -128 11 -176 57 -65 61 -80 101 -85 227 -6 140 10
200 69 263 23 23 56 49 73 57 38 16 162 17 198 1z"/>
<path d="M3689 1948 c-35 -65 -368 -943 -361 -950 5 -5 55 -7 112 -6 l103 3
29 80 c16 44 34 92 40 108 l11 27 180 -2 181 -3 42 -105 42 -105 111 -3 c94
-2 111 0 111 13 0 22 -372 949 -384 957 -6 4 -55 8 -108 8 -90 0 -98 -2 -109
-22z m165 -394 c25 -69 46 -132 46 -140 0 -11 -20 -14 -100 -14 -67 0 -100 4
-100 11 0 20 92 269 100 269 4 0 28 -57 54 -126z"/>
<path d="M3638 808 c-16 -5 -28 -14 -28 -19 0 -13 64 -11 78 3 28 28 3 36 -50
16z"/>
<path d="M6891 811 c-14 -4 -26 -12 -29 -19 -5 -16 60 -16 76 0 26 26 7 34
-47 19z"/>
<path d="M3527 685 c-18 -52 -52 -337 -44 -360 8 -19 18 -19 43 0 15 12 16 16
6 23 -12 8 -11 36 2 168 9 88 19 171 22 187 9 44 -13 31 -29 -18z"/>
<path d="M1453 693 c-22 -15 -32 -43 -15 -43 11 0 44 40 40 50 -2 4 -13 1 -25
-7z"/>
<path d="M2590 685 c-26 -28 -17 -34 11 -9 17 15 19 15 30 -10 13 -27 29 -35
29 -13 0 15 -28 57 -39 57 -4 0 -18 -11 -31 -25z"/>
<path d="M6771 678 c-5 -18 -11 -44 -13 -58 -2 -19 -11 -26 -40 -33 -45 -11
-49 -24 -10 -29 23 -3 27 -8 30 -40 2 -20 -1 -45 -6 -55 -12 -22 -1 -145 13
-149 6 -2 18 3 28 10 16 12 16 17 6 34 -12 20 -6 131 18 310 6 50 -11 57 -26
10z"/>
<path d="M7178 703 c-8 -18 8 -248 17 -248 11 0 27 148 23 210 -2 28 -8 41
-20 43 -9 2 -18 -1 -20 -5z"/>
<path d="M430 693 c-95 -16 -150 -66 -150 -137 0 -49 7 -61 27 -45 8 7 13 32
13 64 0 76 26 95 126 95 41 0 74 -3 74 -6 0 -4 -15 -23 -33 -43 -19 -21 -50
-78 -71 -131 -40 -101 -59 -130 -86 -130 -17 0 -40 -18 -40 -33 0 -13 103 -4
108 11 2 7 -5 12 -18 12 -20 0 -19 4 16 43 34 37 44 43 92 47 61 6 65 2 77
-72 7 -46 14 -51 54 -37 37 13 39 21 9 34 -30 13 -38 59 -36 203 1 89 -2 116
-13 123 -14 9 -101 10 -149 2z m120 -133 l0 -90 -50 0 c-60 0 -62 8 -24 90 26
56 51 90 66 90 4 0 8 -40 8 -90z"/>
<path d="M6147 634 c-4 -4 -7 -18 -7 -30 0 -16 -7 -24 -22 -26 -29 -4 -36 -28
-8 -28 20 0 22 -4 17 -42 -17 -123 -18 -157 -8 -177 13 -23 27 -26 51 -11 13
8 12 11 -4 23 -17 12 -18 21 -10 98 5 46 8 89 9 94 0 6 22 12 49 15 69 7 74
30 6 30 -49 0 -51 1 -48 26 3 26 -11 41 -25 28z"/>
<path d="M848 583 c-27 -7 -21 -21 10 -25 23 -3 27 -7 26 -33 -1 -39 -11 -129
-30 -284 -14 -120 -10 -158 13 -129 13 15 67 454 58 468 -6 10 -45 12 -77 3z"/>
<path d="M1050 575 c-11 -13 -11 -18 -1 -24 10 -6 10 -30 0 -115 -14 -123 -9
-137 40 -116 36 15 39 25 10 33 -20 5 -21 9 -13 79 13 116 11 152 -7 156 -9 1
-22 -4 -29 -13z"/>
<path d="M1395 580 c-6 -10 -13 -99 -18 -224 -2 -44 9 -53 38 -31 16 12 17 16
6 24 -11 7 -11 23 -1 92 7 46 11 97 9 113 -4 31 -22 45 -34 26z"/>
<path d="M1712 578 c-17 -17 -15 -25 8 -31 23 -6 37 -37 56 -132 21 -103 21
-102 46 -77 18 18 20 25 11 44 -6 13 -19 53 -28 91 -25 96 -61 137 -93 105z"/>
<path d="M2093 583 c-19 -7 -16 -23 5 -23 31 0 42 -22 42 -87 0 -35 4 -63 10
-63 18 0 30 38 30 94 0 45 -4 58 -22 70 -23 16 -42 19 -65 9z"/>
<path d="M2348 578 c-42 -15 -34 -30 14 -26 31 2 44 8 46 21 4 19 -17 21 -60
5z"/>
<path d="M2583 580 c-32 -13 -29 -26 8 -34 28 -5 31 -9 26 -33 l-5 -27 19 25
c22 28 24 50 7 67 -14 14 -24 14 -55 2z"/>
<path d="M2892 578 c-16 -16 -15 -28 4 -28 20 0 49 -67 65 -150 16 -80 23 -89
44 -57 12 18 13 30 7 44 -6 10 -18 47 -27 82 -24 97 -62 140 -93 109z"/>
<path d="M3298 583 c-27 -7 -21 -21 10 -25 22 -2 28 -8 30 -36 2 -18 -3 -45
-11 -61 -16 -33 -10 -142 8 -148 6 -2 20 3 30 12 17 12 18 16 6 24 -12 8 -13
24 -2 110 7 55 11 108 7 116 -5 15 -40 18 -78 8z"/>
<path d="M3744 580 c-33 -13 -39 -30 -10 -30 14 0 31 -9 41 -22 13 -20 17 -21
25 -8 13 21 12 44 -2 58 -14 14 -24 14 -54 2z"/>
<path d="M4668 583 c-26 -7 -22 -23 5 -23 37 0 47 -19 47 -87 0 -35 4 -63 10
-63 18 0 30 38 30 94 0 45 -4 58 -22 70 -22 16 -37 18 -70 9z"/>
<path d="M5138 583 c-27 -7 -21 -21 10 -25 22 -2 28 -8 30 -36 2 -18 -3 -45
-11 -61 -16 -33 -10 -142 8 -148 6 -2 20 3 30 12 17 12 18 16 6 24 -12 8 -13
24 -2 110 7 55 11 108 7 116 -5 15 -40 18 -78 8z"/>
<path d="M5350 575 c-11 -13 -11 -18 -1 -24 9 -6 10 -30 2 -110 -11 -107 -9
-130 14 -111 15 12 27 88 29 185 1 56 -2 70 -15 73 -9 1 -22 -4 -29 -13z"/>
<path d="M5503 580 c-29 -12 -29 -26 -2 -33 20 -5 21 -10 15 -59 -23 -175 -19
-196 29 -164 28 18 34 39 8 29 -14 -6 -15 1 -8 73 17 161 13 176 -42 154z"/>
<path d="M5758 583 c-26 -7 -22 -23 5 -23 38 0 47 -19 47 -94 l0 -71 20 25
c14 18 20 41 20 82 0 48 -4 59 -22 72 -22 16 -37 18 -70 9z"/>
<path d="M6413 583 c-19 -7 -16 -23 5 -23 32 0 42 -22 42 -94 l1 -71 19 24
c15 17 20 38 20 82 0 48 -4 60 -22 73 -23 16 -42 19 -65 9z"/>
<path d="M6988 583 c-26 -7 -22 -23 5 -23 37 0 47 -19 47 -87 0 -35 4 -63 10
-63 18 0 30 38 30 94 0 45 -4 58 -22 70 -22 16 -37 18 -70 9z"/>
<path d="M1231 559 c-5 -13 -12 -40 -15 -59 -4 -19 -12 -47 -20 -62 -10 -20
-11 -25 -2 -22 9 4 12 -8 8 -44 -5 -58 8 -71 43 -48 23 15 37 45 15 31 -19
-12 -22 26 -11 117 8 60 9 94 2 101 -7 7 -13 2 -20 -14z"/>
<path d="M1909 573 c0 -5 -2 -30 -4 -56 l-3 -48 19 31 c23 37 25 80 4 80 -8 0
-15 -3 -16 -7z"/>
<path d="M3096 568 c-10 -33 -14 -90 -6 -82 18 19 38 67 33 80 -6 17 -22 18
-27 2z"/>
<path d="M4185 568 c-2 -7 -6 -29 -7 -48 -3 -34 -4 -35 -53 -38 -47 -3 -75
-15 -75 -33 0 -4 26 -9 58 -11 l57 -3 -3 -54 c-3 -41 -1 -52 10 -49 7 3 14 11
15 19 12 91 10 89 61 89 44 0 72 12 72 32 0 4 -25 8 -55 8 l-55 0 0 50 c0 46
-15 68 -25 38z"/>
<path d="M752 513 c-36 -46 -56 -113 -47 -160 7 -40 21 -48 58 -34 32 13 36
31 6 31 -21 0 -21 4 -17 70 3 41 12 80 22 96 28 41 12 39 -22 -3z"/>
<path d="M3212 527 c-28 -30 -62 -112 -62 -151 0 -49 20 -71 55 -59 36 12 45
33 15 33 -22 0 -22 3 -18 75 4 53 10 81 23 95 10 11 16 22 13 25 -2 3 -14 -5
-26 -18z"/>
<path d="M5053 527 c-32 -34 -51 -79 -58 -133 -9 -65 9 -91 50 -77 36 12 43
29 14 36 -20 5 -21 10 -17 77 4 48 11 77 23 90 10 11 16 22 13 25 -2 3 -14 -5
-25 -18z"/>
<path d="M2001 496 c-6 -8 -17 -39 -23 -69 -10 -48 -9 -58 6 -81 21 -33 38
-40 71 -32 30 8 33 26 5 26 -35 0 -54 43 -47 110 7 64 6 68 -12 46z"/>
<path d="M5673 498 c-15 -20 -33 -78 -33 -108 0 -54 48 -92 94 -74 22 9 20 24
-4 24 -35 0 -54 43 -47 110 7 63 6 68 -10 48z"/>
<path d="M6323 498 c-15 -20 -33 -78 -33 -108 0 -54 48 -92 94 -74 22 9 20 24
-4 24 -35 0 -54 43 -47 110 7 63 6 68 -10 48z"/>
<path d="M6902 497 c-18 -22 -36 -102 -28 -130 8 -35 48 -61 81 -53 30 8 33
26 5 26 -34 0 -53 43 -48 110 2 33 3 60 2 60 -1 0 -6 -6 -12 -13z"/>
<path d="M2249 473 c-20 -52 -22 -101 -6 -127 23 -34 49 -40 94 -20 l38 18
-40 5 c-49 7 -67 36 -63 104 3 52 -7 61 -23 20z"/>
<path d="M4570 474 c-18 -46 -23 -81 -16 -109 8 -33 49 -59 81 -51 29 7 34 26
6 26 -31 0 -46 29 -48 92 -2 70 -8 82 -23 42z"/>
<path d="M6593 488 c-32 -41 -42 -132 -19 -163 12 -16 19 -18 42 -10 34 12 44
35 15 35 -30 0 -36 24 -24 84 11 52 4 77 -14 54z"/>
<path d="M2486 456 c-23 -55 -20 -93 9 -121 26 -27 46 -31 76 -15 27 15 24 30
-6 30 -15 0 -31 9 -41 25 -18 28 -13 55 11 55 8 0 15 5 15 10 0 6 -7 10 -15
10 -9 0 -19 10 -24 23 -8 21 -9 20 -25 -17z"/>
<path d="M3641 449 c-18 -51 -13 -88 14 -114 26 -27 46 -31 76 -15 26 15 24
30 -4 30 -47 0 -78 66 -37 77 11 3 20 9 20 14 0 5 -9 9 -20 9 -11 0 -20 7 -20
15 0 26 -18 16 -29 -16z"/>
<path d="M1866 423 c-6 -14 -5 -15 5 -6 7 7 10 15 7 18 -3 3 -9 -2 -12 -12z"/>
<path d="M7160 365 c-15 -18 -5 -35 20 -35 10 0 22 5 25 10 7 11 -12 40 -25
40 -4 0 -13 -7 -20 -15z"/>
</g>
</svg>
